<?xml version="1.0" encoding="UTF-8"?>
<svg id="Layer_1" data-name="Layer 1" xmlns="http://www.w3.org/2000/svg" viewBox="0 0 32 32">
  <defs>
    <style>
      .cls-1 {
        fill: #fff;
      }

      .cls-1, .cls-2 {
        stroke-width: 0px;
      }

      .cls-2 {
        fill: #157dc3;
      }
    </style>
  </defs>
  <path id="Blue" class="cls-2" d="m30.24,32c.98,0,1.76-.79,1.76-1.76V1.76c0-.98-.79-1.76-1.76-1.76H1.76C.79,0,0,.79,0,1.76v28.47c0,.98.79,1.76,1.76,1.76h28.47Z"/>
  <path id="f" class="cls-1" d="m22.08,32v-12.39h4.16l.62-4.83h-4.78v-3.08c0-1.4.38-2.35,2.4-2.35h2.56v-4.33c-.45-.06-1.96-.19-3.73-.19-3.69,0-6.21,2.25-6.21,6.38v3.56h-4.17v4.83h4.17v12.39h4.98Z"/>
</svg>