<?xml version="1.0" encoding="UTF-8"?>
<svg id="Layer_1" data-name="Layer 1" xmlns="http://www.w3.org/2000/svg" viewBox="0 0 32 32">
  <defs>
    <style>
      .cls-1 {
        fill: url(#linear-gradient);
        stroke-width: 0px;
      }
    </style>
    <linearGradient id="linear-gradient" x1="8.05" y1="2.24" x2="24.06" y2="29.96" gradientUnits="userSpaceOnUse">
      <stop offset="0" stop-color="#d46aff"/>
      <stop offset=".09" stop-color="#d46aff"/>
      <stop offset=".31" stop-color="#bc63ff"/>
      <stop offset=".68" stop-color="#8d57ff"/>
      <stop offset=".74" stop-color="#8058f1"/>
      <stop offset=".84" stop-color="#5f5dcf"/>
      <stop offset=".93" stop-color="#4062ad"/>
    </linearGradient>
  </defs>
  <path class="cls-1" d="m16,0C7.16,0,0,7.16,0,16s7.16,16,16,16,16-7.16,16-16S24.84,0,16,0Zm4.8,30.37c-.77.15-1.04-.32-1.04-.73,0-.5.01-2.13.01-4.15,0-1.41-.49-2.34-1.03-2.81,3.38-.37,6.92-1.65,6.92-7.48,0-1.65-.58-3.01-1.56-4.07.15-.38.68-1.92-.15-4,0,0-1.27-.41-4.16,1.56-1.21-.33-2.51-.5-3.8-.52-1.29,0-2.59.17-3.8.52-2.87-1.96-4.15-1.56-4.15-1.56-.83,2.09-.3,3.62-.15,4-.96,1.06-1.56,2.4-1.56,4.07,0,5.8,3.54,7.11,6.9,7.49-.43.38-.83,1.04-.96,2.02-.87.38-3.06,1.06-4.41-1.26,0,0-.8-1.45-2.32-1.56,0,0-1.48-.01-.11.92,0,0,.99.46,1.68,2.22,0,0,.89,2.95,5.11,2.03,0,1.27.01,2.22.01,2.58,0,.4-.27.87-1.03.73C5.18,28.37.84,22.69.84,16,.84,7.64,7.62.86,16,.86s15.16,6.78,15.16,15.14c0,6.7-4.34,12.37-10.36,14.37Z"/>
</svg>