<?xml version="1.0" encoding="UTF-8"?>
<svg id="Layer_1" data-name="Layer 1" xmlns="http://www.w3.org/2000/svg" viewBox="0 0 32 32">
  <defs>
    <style>
      .cls-1 {
        fill: #fff;
      }

      .cls-1, .cls-2, .cls-3 {
        stroke-width: 0px;
      }

      .cls-2 {
        fill: url(#radial-gradient-2);
      }

      .cls-3 {
        fill: url(#radial-gradient);
      }
    </style>
    <radialGradient id="radial-gradient" cx="-296.58" cy="-294.7" fx="-296.58" fy="-294.7" r="65" gradientTransform="translate(-125.23 -110.24) rotate(-90) scale(.49 -.45)" gradientUnits="userSpaceOnUse">
      <stop offset="0" stop-color="#fd5"/>
      <stop offset=".1" stop-color="#fd5"/>
      <stop offset=".5" stop-color="#ff543e"/>
      <stop offset="1" stop-color="#c837ab"/>
    </radialGradient>
    <radialGradient id="radial-gradient-2" cx="275.76" cy="-13.98" fx="275.76" fy="-13.98" r="65" gradientTransform="translate(-4.84 -59.14) rotate(78.68) scale(.22 -.9) skewX(-.03)" gradientUnits="userSpaceOnUse">
      <stop offset="0" stop-color="#3771c8"/>
      <stop offset=".13" stop-color="#3771c8"/>
      <stop offset="1" stop-color="#60f" stop-opacity="0"/>
    </radialGradient>
  </defs>
  <path class="cls-3" d="m16.01,0C9.33,0,7.37,0,6.99.04c-1.37.11-2.22.33-3.15.79-.72.36-1.28.77-1.84,1.35C.99,3.23.37,4.53.15,6.07.04,6.82,0,6.97,0,10.79,0,12.07,0,13.74,0,15.99,0,22.67,0,24.62.04,25c.11,1.33.32,2.17.76,3.09.85,1.76,2.46,3.08,4.37,3.57.66.17,1.39.26,2.32.31.4.02,4.43.03,8.48.03s8.08,0,8.47-.02c1.08-.05,1.71-.14,2.41-.32,1.92-.49,3.5-1.79,4.37-3.58.43-.9.65-1.77.75-3.03.02-.28.03-4.67.03-9.06s0-8.78-.03-9.05c-.1-1.29-.32-2.15-.77-3.06-.37-.75-.78-1.31-1.37-1.88-1.06-1.01-2.35-1.63-3.9-1.85-.75-.11-.9-.14-4.72-.15h-5.21Z"/>
  <path class="cls-2" d="m16.01,0C9.33,0,7.37,0,6.99.04c-1.37.11-2.22.33-3.15.79-.72.36-1.28.77-1.84,1.35C.99,3.23.37,4.53.15,6.07.04,6.82,0,6.97,0,10.79,0,12.07,0,13.74,0,15.99,0,22.67,0,24.62.04,25c.11,1.33.32,2.17.76,3.09.85,1.76,2.46,3.08,4.37,3.57.66.17,1.39.26,2.32.31.4.02,4.43.03,8.48.03s8.08,0,8.47-.02c1.08-.05,1.71-.14,2.41-.32,1.92-.49,3.5-1.79,4.37-3.58.43-.9.65-1.77.75-3.03.02-.28.03-4.67.03-9.06s0-8.78-.03-9.05c-.1-1.29-.32-2.15-.77-3.06-.37-.75-.78-1.31-1.37-1.88-1.06-1.01-2.35-1.63-3.9-1.85-.75-.11-.9-.14-4.72-.15h-5.21Z"/>
  <path class="cls-1" d="m16,4.18c-3.21,0-3.61.01-4.87.07-1.26.06-2.12.26-2.87.55-.78.3-1.44.71-2.09,1.36-.66.66-1.06,1.32-1.36,2.09-.29.75-.49,1.61-.55,2.87-.06,1.26-.07,1.66-.07,4.87s.01,3.61.07,4.87c.06,1.26.26,2.12.55,2.87.3.78.71,1.44,1.36,2.09.66.66,1.32,1.06,2.09,1.36.75.29,1.61.49,2.87.55,1.26.06,1.66.07,4.87.07s3.61-.01,4.87-.07c1.26-.06,2.12-.26,2.87-.55.78-.3,1.43-.71,2.09-1.36.66-.66,1.06-1.32,1.36-2.09.29-.75.49-1.61.55-2.87.06-1.26.07-1.66.07-4.87s-.01-3.61-.07-4.87c-.06-1.26-.26-2.12-.55-2.87-.3-.78-.71-1.44-1.36-2.09-.66-.66-1.31-1.06-2.09-1.36-.75-.29-1.61-.49-2.87-.55-1.26-.06-1.66-.07-4.87-.07h0Zm-1.06,2.13c.31,0,.67,0,1.06,0,3.15,0,3.53.01,4.77.07,1.15.05,1.78.25,2.19.41.55.21.94.47,1.36.88.41.41.67.81.88,1.36.16.42.35,1.04.41,2.19.06,1.25.07,1.62.07,4.77s-.01,3.53-.07,4.77c-.05,1.15-.25,1.78-.41,2.19-.21.55-.47.94-.88,1.36-.41.41-.81.67-1.36.88-.42.16-1.04.35-2.19.41-1.25.06-1.62.07-4.77.07s-3.53-.01-4.77-.07c-1.15-.05-1.78-.25-2.19-.41-.55-.21-.95-.47-1.36-.88-.41-.41-.67-.81-.88-1.36-.16-.42-.35-1.04-.41-2.19-.06-1.25-.07-1.62-.07-4.78s.01-3.53.07-4.77c.05-1.15.25-1.78.41-2.19.21-.55.47-.95.88-1.36.41-.41.81-.67,1.36-.88.42-.16,1.04-.35,2.19-.41,1.09-.05,1.51-.06,3.71-.07h0Zm7.37,1.96c-.78,0-1.42.63-1.42,1.42s.63,1.42,1.42,1.42,1.42-.64,1.42-1.42-.63-1.42-1.42-1.42h0Zm-6.31,1.66c-3.35,0-6.07,2.72-6.07,6.07s2.72,6.07,6.07,6.07c3.35,0,6.07-2.72,6.07-6.07s-2.72-6.07-6.07-6.07h0Zm0,2.13c2.17,0,3.94,1.76,3.94,3.94s-1.76,3.94-3.94,3.94-3.94-1.76-3.94-3.94,1.76-3.94,3.94-3.94Z"/>
</svg>