<?xml version="1.0" encoding="UTF-8"?>
<svg id="Layer_1" data-name="Layer 1" xmlns="http://www.w3.org/2000/svg" viewBox="0 0 32 32">
  <defs>
    <style>
      .cls-1 {
        fill: #fff;
      }

      .cls-1, .cls-2 {
        fill-rule: evenodd;
        stroke-width: 0px;
      }

      .cls-2 {
        fill: #007ebb;
      }
    </style>
  </defs>
  <path class="cls-2" d="m3.56,32h24.89c1.96,0,3.56-1.59,3.56-3.56V3.56c0-1.96-1.59-3.56-3.56-3.56H3.56C1.59,0,0,1.59,0,3.56v24.89c0,1.96,1.59,3.56,3.56,3.56Z"/>
  <path class="cls-1" d="m27.56,27.56h-4.75v-8.09c0-2.22-.84-3.46-2.6-3.46-1.91,0-2.91,1.29-2.91,3.46v8.09h-4.58v-15.41h4.58v2.08s1.38-2.55,4.65-2.55,5.61,2,5.61,6.12v9.76ZM7.27,10.13c-1.56,0-2.82-1.27-2.82-2.84s1.26-2.84,2.82-2.84,2.82,1.27,2.82,2.84-1.26,2.84-2.82,2.84Zm-2.36,17.42h4.77v-15.41h-4.77v15.41Z"/>
</svg>