<?xml version="1.0" encoding="UTF-8"?>
<svg id="Layer_1" data-name="Layer 1" xmlns="http://www.w3.org/2000/svg" viewBox="0 0 160 160">
  <defs>
    <style>
      .cls-1 {
        fill: none;
      }

      .cls-1, .cls-2, .cls-3 {
        stroke-width: 0px;
      }

      .cls-2 {
        fill: #0774bb;
      }

      .cls-3 {
        fill: #e92e2f;
      }
    </style>
  </defs>
  <rect class="cls-1" width="160" height="160"/>
  <g>
    <path class="cls-3" d="m89.33,12.4c2.12,2.42,2.82,5.87,2.21,8.99-.65,3.5-2.6,6.59-4.88,9.26-1.83,2.15-3.93,4.04-6.12,5.8-2.55,2.06-5.06,4.27-6.66,7.16-1.35,2.35-1.67,5.24-.75,7.79,1.51,4.38,5.04,7.63,6.96,11.77-2.12-1.87-4.2-3.82-6.14-5.87-2.03-2.17-3.95-4.47-5.22-7.18-.86-1.9-1.24-4.11-.59-6.12.65-2.06,2.12-3.7,3.59-5.24,4.09-4.09,9.12-7.09,13.12-11.25,2.21-2.28,4.04-5.01,4.67-8.15.52-2.3.27-4.67-.2-6.96h0Z"/>
    <path class="cls-3" d="m85.99,38.12c4.38-3.23,9.51-5.28,14.7-6.77-4.11,2.62-8.4,5.01-11.95,8.38-1.29,1.24-2.51,2.66-3.07,4.4-.43,1.29-.25,2.71.27,3.93.95,2.17,2.55,3.93,3.77,5.92,1.04,1.69,1.22,3.86.43,5.69-1.2,2.69-3.55,4.65-5.98,6.21-.32.18-.59.52-.97.56,1.63-1.47,2.89-3.55,2.85-5.78-.04-1.67-.97-3.14-2.05-4.34-2.24-2.66-4.11-6.05-3.73-9.64.38-3.59,2.96-6.48,5.74-8.56h0Z"/>
    <path class="cls-2" d="m101.53,64.23c.95-1.15,2.46-1.45,3.84-1.63,2.39-.32,4.95.29,6.75,1.94,1.49,1.33,2.33,3.41,2.01,5.42-.34,2.33-1.9,4.27-3.66,5.74-3.18,2.55-7.11,4.04-11.04,5.04.23-.25.47-.47.77-.65,2.98-1.6,5.94-3.48,8.13-6.1,1.33-1.63,2.37-3.75,1.94-5.89-.45-2.48-2.87-4.29-5.33-4.43-1.17-.11-2.28.34-3.41.56h0Z"/>
    <path class="cls-2" d="m56.14,66.28c4.16-1.78,8.67-2.94,13.21-2.87-2.64.77-5.35,1.42-7.84,2.6-.59.32-1.26.61-1.6,1.22-.18.47.32.79.68.95,1.54.63,3.23.72,4.88.88,5.78.38,11.58.16,17.34-.2,5.69-.36,11.34-1.13,16.96-2.03-1.24.59-2.51,1.17-3.66,1.92-.59.41-1.31.52-1.96.68-6.91,1.54-14,2.01-21.05,2.12-2.73.02-5.44-.02-8.15-.2-3.03-.2-6.07-.43-9.03-1.22-.86-.25-1.76-.52-2.44-1.13-.34-.27-.34-.81-.05-1.13.75-.77,1.78-1.13,2.71-1.58h0Z"/>
    <path class="cls-2" d="m61.46,75.92c1.17-.93,2.57-1.45,3.97-1.94-.45.54-1.08,1.06-1.13,1.81-.02.47.36.84.75,1.06.75.38,1.58.52,2.42.63,4.34.45,8.72.7,13.1.41,4-.2,7.97-.86,11.92-1.56,1.08,1.02,2.37,1.72,3.73,2.33-4.77,1.4-9.67,2.21-14.59,2.6-4.65.32-9.37.29-14-.45-1.83-.34-3.7-.72-5.37-1.58-.68-.36-1.45-.84-1.65-1.63-.14-.68.36-1.29.86-1.67h0Z"/>
    <path class="cls-2" d="m64.08,85.77c1.04-.84,2.33-1.26,3.59-1.63-.41.38-1.13.86-.81,1.51.61.79,1.74.88,2.64,1.08,3.82.47,7.68.79,11.49.5,2.89-.18,5.74-.7,8.56-1.2,1.63.95,3.32,1.76,5.06,2.48-2.66,1.2-5.53,1.96-8.4,2.51-4.83.86-9.82.97-14.68.2-2.15-.38-4.34-.88-6.28-1.94-.75-.43-1.54-.93-1.85-1.76-.25-.65.16-1.35.68-1.76h0Z"/>
    <path class="cls-2" d="m51.55,92.16c2.08-.7,4.22-1.26,6.41-1.33.88-.02,1.78.02,2.55.47-2.62.16-5.24.81-7.59,2.01-.52.29-1.11.63-1.31,1.24,0,.7.79.93,1.31,1.15,3.27,1.22,6.77,1.6,10.21,1.96,10.23.86,20.53.63,30.76-.29,3.86-.43,7.75-.86,11.49-1.92,1.2-.41,2.55-.81,3.34-1.87.47-.63.16-1.42-.32-1.96.77.43,1.85.97,1.69,2.01-.29,1.08-1.4,1.65-2.3,2.17-2.89,1.47-6.07,2.21-9.24,2.87-9.19,1.81-18.61,2.21-27.96,1.94-7.05-.25-14.09-.93-21.05-2.12-1.24-.29-2.64-.54-3.55-1.51-.59-.68-.07-1.63.5-2.12,1.42-1.31,3.25-2.03,5.04-2.69h0Z"/>
    <path class="cls-2" d="m107.83,99.88c2.28-.79,4.72-1.63,6.41-3.43-.29,1.96-1.99,3.32-3.66,4.2-3.21,1.67-6.8,2.44-10.37,3.07-7.54,1.2-15.2,1.49-22.85,1.35-5.22-.16-10.48-.36-15.6-1.45-1.22-.34-2.53-.56-3.59-1.29,4.56.77,9.19,1.08,13.82,1.26,7.61.23,15.24-.07,22.81-1.02,4.38-.61,8.78-1.35,13.03-2.71h0Z"/>
    <path class="cls-3" d="m48.32,133.37c.02-7.41-.02-14.81.02-22.24,1.54.05,3.07,0,4.61.05-.02,8.29,0,16.6-.02,24.91-.05,2.33-.09,4.76-1.22,6.84-1.24,2.21-3.46,3.77-5.8,4.67-.75-.81-1.42-1.67-2.17-2.48h0c1.9-1.11,3.79-2.69,4.25-4.97.43-2.24.29-4.52.34-6.77h0Z"/>
    <path class="cls-3" d="m57.22,120.05c3.05-1.31,6.44-1.99,9.76-1.63,1.72.2,3.5.84,4.61,2.21.93,1.17,1.26,2.69,1.24,4.16v15.15h-3.41c-.11-.75-.23-1.51-.32-2.28-1.29,1.02-2.66,1.99-4.27,2.39-1.83.47-3.84.43-5.62-.27-1.38-.56-2.46-1.81-2.85-3.25-.56-2.1-.27-4.56,1.22-6.26,1.33-1.56,3.34-2.33,5.33-2.69,1.83-.36,3.7-.36,5.58-.36-.05-1.42.23-2.98-.59-4.25-.65-.97-1.85-1.35-2.96-1.42-2.42-.2-4.81.41-7.09,1.2-.23-.9-.43-1.81-.63-2.71m5.6,10.48c-.99.32-1.92,1.04-2.19,2.08-.32,1.15-.23,2.51.52,3.48.72.95,2.03,1.17,3.16,1.04,1.58-.18,2.96-1.08,4.18-2.05,0-1.69-.02-3.36,0-5.06-1.9,0-3.84-.11-5.67.52h0Z"/>
    <path class="cls-3" d="m96.92,120.05c3.07-1.31,6.46-2.01,9.8-1.63,1.67.2,3.39.81,4.49,2.12,1.04,1.24,1.35,2.89,1.33,4.47-.02,4.99.02,9.96-.04,14.95-1.13-.05-2.26.02-3.39-.05-.11-.77-.2-1.51-.34-2.26-1.58,1.35-3.48,2.46-5.62,2.64-1.96.18-4.18-.07-5.71-1.47-1.6-1.49-1.87-3.91-1.47-5.96.38-1.9,1.81-3.45,3.52-4.29,2.69-1.31,5.76-1.38,8.69-1.35-.05-1.38.2-2.85-.5-4.09-.54-.99-1.69-1.45-2.78-1.56-2.51-.27-5.01.36-7.36,1.17-.2-.9-.43-1.81-.63-2.71m5.53,10.5c-.95.32-1.83,1.04-2.12,2.03-.32,1.15-.23,2.51.5,3.5.75.97,2.08,1.17,3.23,1.04,1.56-.23,2.98-1.08,4.16-2.12-.05-1.65-.02-3.32-.02-4.99-1.92,0-3.88-.11-5.74.54h0Z"/>
    <path class="cls-3" d="m75.4,118.7h4.74c.93,2.98,1.83,5.94,2.76,8.92.54,1.83,1.22,3.64,1.6,5.51.2.84.38,1.69.63,2.51,1.94-5.49,3.43-11.16,4.2-16.94h4.61c-1.33,7.32-3.43,14.52-6.59,21.25h-5.42c-2.17-7.09-4.36-14.16-6.53-21.25h0Z"/>
    <g>
      <path class="cls-3" d="m113.45,118.28h-.56v-.2h1.35v.2h-.56v1.63h-.24v-1.63Z"/>
      <path class="cls-3" d="m115.99,119.11c-.01-.25-.03-.56-.03-.79h0c-.06.21-.14.44-.23.69l-.32.89h-.18l-.3-.87c-.09-.26-.16-.49-.21-.71h0c0,.23-.02.53-.04.81l-.05.78h-.22l.13-1.83h.3l.31.88c.08.22.14.43.18.61h0c.05-.18.11-.38.19-.61l.33-.88h.3l.11,1.83h-.23l-.04-.8Z"/>
    </g>
  </g>
</svg>