<?xml version="1.0" encoding="UTF-8"?>
<svg id="Layer_1" data-name="Layer 1" xmlns="http://www.w3.org/2000/svg" viewBox="0 0 160 160">
  <defs>
    <style>
      .cls-1, .cls-2, .cls-3, .cls-4, .cls-5, .cls-6 {
        stroke-width: 0px;
      }

      .cls-2 {
        fill: none;
      }

      .cls-3 {
        fill: #fff;
      }

      .cls-4 {
        fill: #cfcfcf;
      }

      .cls-5 {
        fill: #29a9df;
      }

      .cls-6 {
        fill: #0170ba;
      }
    </style>
  </defs>
  <rect class="cls-2" width="160" height="160"/>
  <g>
    <g id="_000000ff">
      <path class="cls-1" d="m49.68,10.19c6.14-.08,12.29-.02,18.43-.03.01,1.92.04,3.84-.03,5.77-4.26-.03-8.51,0-12.76.03-.03,2.79-.08,5.58-.06,8.37,4.27.03,8.55.07,12.82.05.05,1.58.03,3.17-.01,4.75-6.13-.04-12.25-.02-18.38-.02.01-6.31.03-12.61,0-18.92Z"/>
      <path class="cls-1" d="m70.3,10.17c6.22-.01,12.44-.05,18.66.02-.02,1.82,0,3.63,0,5.45-4.53-.01-9.05,0-13.58.06,0,.71,0,1.43,0,2.14,4.52.07,9.04.08,13.55.11.02,3.72,0,7.45.03,11.17-6.22-.01-12.44,0-18.67.02-.03-1.5-.04-3,0-4.51,4.31.01,8.63.02,12.94-.02.03-.97.04-1.94.04-2.91-4.33,0-8.67.01-13-.01,0-3.84,0-7.68.02-11.52Z"/>
      <path class="cls-1" d="m91.04,10.2h18.63c.03,1.83.05,3.65,0,5.47-4.55,0-9.09.02-13.64.03.01.75.03,1.49.07,2.24,4.52-.02,9.04.04,13.56.08.04,3.71.07,7.41.02,11.12-6.22-.02-12.44-.02-18.67.01-.04-1.5-.05-3,.01-4.5,4.3.03,8.61.03,12.92-.01.01-.97.03-1.94.02-2.91-4.32.04-8.64.02-12.97,0,0-3.84.03-7.69.06-11.53Z"/>
    </g>
    <g id="_0170baff">
      <path class="cls-6" d="m29.68,36.96c33.33,0,66.65,0,99.98,0-1.83,20.73-3.64,41.45-5.55,62.17-1.14,13.24-2.31,26.49-3.54,39.72-7.11,1.88-14.15,4.03-21.26,5.92-6.53,1.92-13.11,3.65-19.64,5.55h-.19c-6.22-1.85-12.49-3.48-18.71-5.32-7.34-1.98-14.61-4.18-21.95-6.15-.96-9.92-1.82-19.85-2.67-29.77-1.61-18.34-3.35-36.67-4.9-55.01-.54-5.52-.92-11.06-1.56-16.57v-.55m50.14,8.18c-.07,3.98.05,7.97-.07,11.94-11.43-.04-22.87,0-34.3,0,.2,3.86.71,7.7,1.25,11.53,10.64.39,21.29-.01,31.93.3-9.31,4.17-18.73,8.11-28.07,12.19-.8.36-1.66.63-2.38,1.15.08,4.24.76,8.47,1.06,12.7,5.67-.02,11.34-.11,17.01-.12,4.54-.02,9.09.07,13.63-.03-.22,6.98.07,13.97-.15,20.95-3.06-.45-6.08-1.14-9.12-1.68-2.4-.52-4.86-.8-7.23-1.48-.34-3.35-.57-6.71-.87-10.06-.68-.21-1.41-.19-2.12-.2-3.43.02-6.87-.01-10.31.04.34,6.44.92,12.88,1.9,19.26,3.39.88,6.78,1.75,10.16,2.67,5.18,1.41,10.43,2.58,15.62,3.97.62.13,1.24.36,1.88.31.35,4.24.08,8.5.14,12.75,1.2-.19,2.37-.49,3.53-.85,9.82-2.67,19.64-5.39,29.45-8.08.49-3.86.72-7.75,1.1-11.62,1.02-11.77,2.05-23.53,3.12-35.3,1.26-13.46,2.34-26.93,3.6-40.39-13.59.01-27.19-.03-40.78.02Z"/>
    </g>
    <g id="_29a9dfff">
      <path class="cls-5" d="m79.82,45.14c13.59-.04,27.18,0,40.78-.02-1.26,13.46-2.35,26.93-3.6,40.39-1.07,11.76-2.1,23.53-3.12,35.3-.39,3.87-.61,7.76-1.1,11.62-9.82,2.69-19.63,5.41-29.45,8.08-1.16.36-2.33.65-3.53.85-.06-4.25.2-8.52-.14-12.75.09-.02.27-.05.35-.07,9.14-2.29,18.21-4.82,27.33-7.19,1.15-12.93,2.43-25.86,3.24-38.81-7.75.04-15.51.02-23.26.05-1.13,0-2.26,0-3.38-.08,4.17-2.15,8.56-3.85,12.84-5.77,4.11-1.86,8.27-3.61,12.4-5.44.8-.37,1.64-.67,2.34-1.21.27-1.01.26-2.07.37-3.1.24-3.28.66-6.54.82-9.81-10.98-.09-21.96-.01-32.94-.07.12-3.98,0-7.96.07-11.94Z"/>
      <path class="cls-5" d="m79.88,94.81c5.3-.09,10.6.05,15.91.02-.3,5.42-.75,10.83-1.03,16.25-3.25,1.06-6.55,1.96-9.83,2.94-1.75.53-3.54.95-5.2,1.73.21-6.98-.07-13.97.15-20.95Z"/>
    </g>
    <g id="_cfcfcfff">
      <path class="cls-4" d="m45.45,57.09c11.43-.01,22.87-.04,34.3,0,.15,12.58-.04,25.16.13,37.73-4.54.1-9.09,0-13.63.03-5.67,0-11.34.1-17.01.12-.3-4.24-.99-8.46-1.06-12.7.72-.52,1.57-.79,2.38-1.15,9.35-4.09,18.77-8.02,28.07-12.19-10.64-.32-21.29.09-31.93-.3-.53-3.83-1.05-7.67-1.25-11.53Z"/>
      <path class="cls-4" d="m50.08,102.38c3.44-.05,6.87-.02,10.31-.04.71.01,1.43,0,2.12.2.3,3.35.53,6.71.87,10.06,2.37.69,4.83.96,7.23,1.48,3.05.54,6.06,1.22,9.12,1.68.29,4.25-.22,8.52.27,12.76-.09.02-.27.05-.35.07-.64.05-1.26-.18-1.88-.31-5.19-1.39-10.44-2.56-15.62-3.97-3.38-.92-6.78-1.79-10.16-2.67-.99-6.38-1.57-12.82-1.9-19.26Z"/>
    </g>
    <g id="_ffffffff">
      <path class="cls-3" d="m79.75,57.08c10.98.06,21.96-.02,32.94.07-.16,3.28-.58,6.54-.82,9.81-.11,1.03-.09,2.09-.37,3.1-.7.54-1.55.85-2.34,1.21-4.12,1.83-8.28,3.57-12.4,5.44-4.28,1.92-8.67,3.62-12.84,5.77,1.12.08,2.25.09,3.38.08,7.75-.03,15.51,0,23.26-.05-.81,12.96-2.09,25.88-3.24,38.81-9.12,2.38-18.19,4.9-27.33,7.19-.49-4.23.02-8.51-.27-12.76,1.66-.78,3.45-1.2,5.2-1.73,3.28-.98,6.58-1.88,9.83-2.94.28-5.42.73-10.83,1.03-16.25-5.3.04-10.61-.11-15.91-.02-.16-12.57.02-25.15-.13-37.73Z"/>
    </g>
  </g>
</svg>