<?xml version="1.0" encoding="UTF-8"?>
<svg id="layer" xmlns="http://www.w3.org/2000/svg" viewBox="0 0 144 42">
  <defs>
    <style>
      .cls-1 {
        fill-rule: evenodd;
      }

      .cls-1, .cls-2, .cls-3 {
        stroke-width: 0px;
      }

      .cls-3 {
        fill: #fff;
      }
    </style>
  </defs>
  <rect class="cls-3" width="144" height="42"/>
  <path class="cls-2" d="m84.04,29.37h-.04s.02.02.04.02h.02l-.02-.02Zm0,.02c-.17,0-.6.08-1.06.08-1.44,0-1.94-.67-1.94-1.54v-5.79h2.94c.17,0,.29-.15.29-.35v-3.14c0-.17-.15-.31-.29-.31h-2.94v-3.91c0-.15-.1-.23-.27-.23h-4c-.17,0-.25.1-.25.23v4.02s-2.02.5-2.14.52c-.15.04-.23.17-.23.31v2.52c0,.21.15.35.31.35h2.04v6.08c0,4.52,3.14,4.98,5.29,4.98.98,0,2.17-.31,2.35-.42.1-.04.17-.17.17-.29v-2.77c0-.17-.1-.29-.27-.33h0Zm43.84-4.06c0-3.35-1.35-3.79-2.77-3.64-1.1.06-2,.62-2,.62v6.52s.9.62,2.25.67c1.89.04,2.52-.65,2.52-4.16h0Zm4.5-.29c0,6.35-2.06,8.16-5.64,8.16-3.04,0-4.66-1.54-4.66-1.54,0,0-.06.85-.17.96-.06.1-.15.15-.27.15h-2.73c-.19,0-.35-.15-.35-.31l.04-20.55c0-.17.15-.31.31-.31h3.93c.17,0,.31.15.31.31v6.97s1.52-.98,3.75-.98l-.02-.04c2.21,0,5.5.83,5.5,7.18h0Zm-16.13-6.68h-3.89c-.21,0-.31.15-.31.35v10.06s-1.02.71-2.41.71-1.79-.62-1.79-2.02v-8.79c0-.17-.15-.31-.31-.31h-3.96c-.17,0-.31.15-.31.31v9.47c0,4.06,2.27,5.08,5.39,5.08,2.58,0,4.66-1.42,4.66-1.42,0,0,.1.73.15.83.04.08.17.17.29.17h2.48c.21,0,.31-.15.31-.31l.04-13.82c.02-.17-.15-.31-.33-.31h0Zm-43.84-.02h-3.93c-.17,0-.31.17-.31.37v13.57c0,.37.25.5.56.5h3.56c.37,0,.46-.17.46-.5v-13.64c-.02-.17-.17-.31-.33-.31h0Zm-1.96-6.27c-1.42,0-2.56,1.12-2.56,2.56s1.12,2.56,2.56,2.56,2.52-1.12,2.52-2.56-1.12-2.56-2.52-2.56h0Zm30.52-.46h-3.91c-.17,0-.31.15-.31.31v7.56h-6.12v-7.56c0-.17-.15-.31-.31-.31h-3.93c-.17,0-.31.15-.31.31v20.55c0,.17.17.31.31.31h3.93c.17,0,.31-.15.31-.31v-8.79h6.12l-.04,8.79c0,.17.15.31.31.31h3.93c.17,0,.31-.15.31-.31V11.92c.02-.17-.12-.31-.29-.31h0Zm-34.91,9.1v10.62c0,.06-.02.21-.1.23,0,0-2.31,1.64-6.12,1.64-4.6,0-10.08-1.44-10.08-10.95s4.77-11.47,9.43-11.45c4.04,0,5.66.92,5.91,1.08.06.1.1.17.1.25l-.75,3.31c0,.17-.17.37-.37.31-.67-.21-1.67-.6-4.02-.6-2.73,0-5.64.77-5.64,6.91s2.77,6.85,4.77,6.85c1.71,0,2.31-.21,2.31-.21v-4.25h-2.73c-.21,0-.35-.15-.35-.31v-3.41c0-.17.15-.31.35-.31h6.93c.21-.02.35.12.35.29h0Z"/>
  <path class="cls-1" d="m27.48,5.53c-8.76,0-15.86,7.1-15.86,15.86,0,7.02,4.54,12.95,10.85,15.05.79.12,1.1-.33,1.1-.75,0-.37-.02-1.62-.02-2.96-3.98.73-5.02-.98-5.33-1.85-.19-.46-.96-1.87-1.62-2.25-.56-.29-1.35-1.04-.02-1.06,1.25-.02,2.14,1.14,2.44,1.62,1.44,2.39,3.71,1.73,4.62,1.31.15-1.02.56-1.73,1.02-2.12-3.52-.4-7.22-1.77-7.22-7.83,0-1.73.62-3.16,1.62-4.27-.17-.4-.71-2.02.17-4.21,0,0,1.33-.42,4.37,1.62,1.27-.35,2.62-.54,3.96-.54s2.69.19,3.96.54c3.04-2.06,4.35-1.62,4.35-1.62.87,2.19.31,3.81.17,4.21,1.02,1.1,1.62,2.52,1.62,4.27,0,6.08-3.71,7.43-7.24,7.83.58.5,1.08,1.44,1.08,2.94,0,2.12-.02,3.83-.02,4.35,0,.42.29.92,1.08.75,6.45-2.19,10.8-8.24,10.8-15.05,0-8.74-7.1-15.84-15.86-15.84h0Z"/>
</svg>