<?xml version="1.0" encoding="UTF-8"?>
<svg id="Layer_1" data-name="Layer 1" xmlns="http://www.w3.org/2000/svg" viewBox="0 0 160 160">
    <defs>
        <style>
            .cls-1 {
            fill: #f03c2e;
            }

            .cls-1, .cls-2, .cls-3 {
            stroke-width: 0px;
            }

            .cls-2 {
            fill: none;
            }

            .cls-3 {
            fill: #fff;
            }
        </style>
    </defs>
    <rect class="cls-2" width="160" height="160"/>
    <rect class="cls-2" x="17.85" y="17.85" width="124.3" height="124.3"/>
    <path class="cls-1" d="m139.81,74.46l-54.27-54.27c-3.13-3.13-8.19-3.13-11.32,0,0,0,0,0,0,0l-10.83,11.09,13.85,14.47c3.41-1.14,7.22-.28,9.78,2.28,2.58,2.58,3.45,6.4,2.26,9.84l13.78,13.78c4.9-1.7,10.56.79,12.32,6.41,1.03,3.29-.03,6.89-2.47,9.33h0c-3.72,3.72-9.76,3.72-13.48,0-2.72-2.72-3.53-6.81-2.07-10.36l-12.85-12.85v33.82c4.72,2.33,6.65,8.04,4.32,12.76-1.64,3.32-5.17,5.6-9.5,5.33-2.14-.13-4.12-1.16-5.63-2.67-.05-.05-.09-.09-.14-.14-3.72-3.72-3.72-9.75,0-13.47h0c.89-.9,1.95-1.6,3.12-2.08v-34.13c-4.88-2.01-7.2-7.61-5.17-12.49,0,0,0,0,0,0l-13.65-14.27-37.66,37.39c-3.12,3.13-3.12,8.2,0,11.32l54.28,54.28c3.13,3.12,8.19,3.12,11.32,0l54.02-54.02c3.12-3.13,3.12-8.2,0-11.32Z"/>
    <path class="cls-3" d="m63.39,31.28c2.93,3.06,5.86,6.12,8.79,9.18,1.69,1.76,3.37,3.52,5.06,5.29,1.13-.44,3.61-.79,5.8-.1,1.28.4,2.11.86,3.13,1.63.8.6,2.43,2.09,3.23,4.73.82,2.72.17,5.02-.12,5.86,2.08,2.08,4.16,4.16,6.24,6.24,2.51,2.51,5.03,5.02,7.54,7.54.56-.19,1.39-.42,2.41-.5,2.07-.15,3.66.39,4.38.71.58.26,1.73.79,2.86,1.85.56.53,2.75,2.75,3.03,6.24.38,4.74-2.98,7.59-3.49,8.01-.56.52-3.15,2.49-6.93,2.16-.72-.06-3.55-.39-5.91-2.75-.36-.36-2.71-2.78-2.78-6.56-.03-1.67.39-3.01.71-3.8-.88-.88-1.76-1.76-2.65-2.64-3.4-3.4-6.8-6.8-10.21-10.2v33.82c.79.39,2.61,1.43,3.92,3.6.42.69,1.68,2.88,1.32,6.06-.16,1.35-.58,2.44-.97,3.21-.31.61-1.24,2.27-3.16,3.57-.33.22-1.11.72-2.23,1.12-.62.22-1.86.55-3.46.55-.5,0-1.31-.03-2.35-.33-.22-.06-1.12-.33-2.16-.98-1.9-1.18-2.89-2.75-3.17-3.15-.41-.59-1.65-2.74-1.46-5.62.08-1.29.39-2.28.55-2.74.15-.4.63-1.68,1.74-2.96.19-.22.34-.38.4-.44,1.14-1.21,2.4-1.83,3.2-2.16v-34.13c-.54-.24-1.3-.58-2.07-1.16-.53-.4-1.66-1.32-2.52-2.83-1.04-1.84-1.27-3.53-1.32-4.25-.12-1.96.41-3.48.74-4.25-1.68-1.76-3.37-3.52-5.05-5.28-2.87-3-5.74-6-8.61-9"/>
</svg>