<?xml version="1.0" encoding="UTF-8"?>
<svg id="svg2" xmlns="http://www.w3.org/2000/svg" viewBox="0 0 160 160">
  <defs>
    <style>
      .cls-1 {
        fill: #f16529;
      }

      .cls-1, .cls-2, .cls-3, .cls-4, .cls-5, .cls-6 {
        stroke-width: 0px;
      }

      .cls-3 {
        fill: #e44d26;
      }

      .cls-4 {
        fill: #fff;
      }

      .cls-5 {
        fill: none;
        opacity: .5;
      }

      .cls-6 {
        fill: #ebebeb;
      }
    </style>
  </defs>
  <g id="g3054">
    <polygon id="polygon3028" class="cls-3" points="130 37.51 120.89 138.74 79.94 150 39.1 138.76 30 37.51 130 37.51"/>
    <polygon id="polygon3030" class="cls-1" points="80 141.39 113.09 132.29 120.88 45.79 80 45.79 80 141.39"/>
    <polygon id="polygon3032" class="cls-6" points="62.29 70.63 80 70.63 80 58.21 79.96 58.21 48.61 58.21 48.91 61.54 51.98 95.76 80 95.76 80 83.34 63.43 83.34 62.29 70.63"/>
    <polygon id="polygon3034" class="cls-6" points="65.11 101.97 58.34 101.97 52.54 101.97 54.3 121.46 79.94 128.52 80 128.51 80 115.59 79.95 115.6 66 111.87 65.11 101.97"/>
    <path id="path3036" class="cls-2" d="m39.3,10h6.36v6.23h5.82v-6.23h6.36v18.88h-6.36v-6.32h-5.82v6.32h-6.36V10h0Z"/>
    <path id="path3038" class="cls-2" d="m66.21,16.26h-5.6v-6.26h17.57v6.26h-5.6v12.62h-6.36v-12.62h0Z"/>
    <path id="path3040" class="cls-2" d="m80.97,10h6.63l4.08,6.63,4.08-6.63h6.64v18.88h-6.34v-9.36l-4.38,6.71h-.11l-4.38-6.71v9.36h-6.22V10h0Z"/>
    <path id="path3042" class="cls-2" d="m105.56,10h6.36v12.64h8.95v6.24h-15.31V10Z"/>
    <polygon id="polygon3044" class="cls-4" points="79.96 95.76 95.37 95.76 93.92 111.86 79.96 115.6 79.96 128.52 105.62 121.46 105.81 119.36 108.75 86.67 109.06 83.34 105.68 83.34 79.96 83.34 79.96 95.76"/>
    <polygon id="polygon3046" class="cls-4" points="79.96 70.6 79.96 70.63 110.16 70.63 110.16 70.63 110.2 70.63 110.45 67.83 111.02 61.54 111.32 58.21 79.96 58.21 79.96 65.92 79.96 70.6"/>
  </g>
  <rect class="cls-5" width="160" height="160"/>
</svg>