<?xml version="1.0" encoding="UTF-8"?>
<svg id="svg64" xmlns="http://www.w3.org/2000/svg" viewBox="0 0 160 160">
  <defs>
    <style>
      .cls-1 {
        fill: #e4a126;
      }

      .cls-1, .cls-2, .cls-3, .cls-4, .cls-5, .cls-6 {
        stroke-width: 0px;
      }

      .cls-3 {
        fill: #eaebec;
      }

      .cls-4 {
        fill: #fff;
      }

      .cls-5 {
        fill: none;
        opacity: .5;
      }

      .cls-6 {
        fill: #f0be25;
      }
    </style>
  </defs>
  <path id="path118" class="cls-4" d="m30.34,37.11l.02,1.26c0,.69,2.01,23.61,4.46,50.92l4.44,49.67,19.96,5.59c10.98,3.07,20.18,5.6,20.46,5.62.28.02,9.61-2.49,20.73-5.57,17.84-4.94,20.25-5.68,20.37-6.29.18-.85,8.91-99.39,8.9-100.45v-.76H30.34Z"/>
  <path id="path88" class="cls-3" d="m59.36,144.88l-20.14-5.63-.26-1.49c-.23-1.32-8.97-98.85-8.97-100.13,0-.47,5.1-.52,50-.52,47.4,0,50,.03,50,.59-.02,2.4-9.05,101.22-9.28,101.41-.28.25-39.25,11.11-40.55,11.3-.37.05-9.73-2.43-20.81-5.53h0Zm33.33-19.89c6.77-1.87,12.4-3.49,12.52-3.61s.91-8.14,1.76-17.83,1.63-18.26,1.73-19.04l.19-1.43h-29.24v12.42h15.79l-.16.76c-.09.42-.42,3.98-.75,7.93-.34,4.18-.75,7.34-.98,7.56-.21.21-3.43,1.2-7.15,2.19l-6.76,1.8v6.32c0,4.32.12,6.32.36,6.32.2,0,5.9-1.53,12.67-3.39h0Zm16.01-49.71c-.22-1.64-2.2-23.7-2.2-24.53,0-.51-1.16-.55-13.26-.55h-13.26v12.98l5.96.23c3.28.13,6.72.32,7.66.43l1.71.2.41,5.08c.23,2.79.5,5.64.6,6.34l.19,1.26h12.37l-.19-1.43Z"/>
  <path id="path80" class="cls-6" d="m59.21,144.55l-19.96-5.59-4.44-49.67c-2.44-27.32-4.45-50.23-4.46-50.92l-.02-1.26h99.33v.76c.02,1.05-8.72,99.59-8.9,100.45-.13.61-2.54,1.36-20.37,6.29-11.13,3.08-20.45,5.59-20.73,5.57-.28-.02-9.48-2.55-20.46-5.62h0Zm33.51-19.31c6.9-1.92,12.64-3.65,12.76-3.84.12-.19.94-8.63,1.83-18.74s1.69-18.65,1.78-18.98c.15-.55-1.02-.59-21.27-.59h-21.43l.91-9.65c.5-5.31.92-9.66.94-9.68.01-.02,3.16-.12,6.99-.22,6.28-.17,19.23.33,19.66.76.16.16,1.23,10.61,1.23,12.03,0,.7.09.71,6.5.71h6.5l-.15-1.43c-.08-.78-.64-6.86-1.22-13.51l-1.07-12.08-25.08-.09c-19.95-.07-25.08,0-25.08.34,0,.23-.15,1.71-.32,3.27-.43,3.8-3.7,40.48-3.7,41.49v.79h42.68l-.19,1.26c-.1.69-.44,4.2-.74,7.8-.3,3.6-.64,6.64-.76,6.75-.31.3-12.87,3.65-13.65,3.65-.36,0-3.61-.81-7.2-1.8l-6.54-1.79-.24-2.82c-.13-1.55-.33-3.76-.45-4.91l-.21-2.1h-12.7v1.26c.04,2.35,1.57,18.21,1.79,18.43.26.26,24.64,7.11,25.39,7.14.28,0,6.15-1.55,13.05-3.47h0Z"/>
  <path id="path78" class="cls-1" d="m59.21,144.55l-19.96-5.59-4.44-49.67c-2.44-27.32-4.45-50.23-4.46-50.92l-.02-1.26h99.33v.76c.02,1.05-8.72,99.59-8.9,100.45-.13.61-2.54,1.36-20.37,6.29-11.13,3.08-20.45,5.59-20.73,5.57-.28-.02-9.48-2.55-20.46-5.62h0Zm37.22-7.48c8.78-2.42,16.13-4.57,16.33-4.78.31-.32,7.9-83.42,7.87-86.2v-.92h-40.62v4.7h-11.75c-9.17,0-11.75.09-11.75.42,0,.23-.15,1.7-.32,3.27-.43,3.8-3.7,40.48-3.7,41.49v.79h27.52v9.73c0,7.57-.09,9.73-.42,9.73-.23,0-3.36-.81-6.96-1.8l-6.54-1.79-.24-2.82c-.13-1.55-.33-3.76-.45-4.91l-.21-2.1h-12.7v1.26c.05,3.6,1.61,18.29,1.98,18.52.22.14,6.06,1.81,12.97,3.73l12.57,3.48v6.31c0,3.47.1,6.31.23,6.31s7.41-1.98,16.19-4.4h0Zm-29.17-63.54c.48-5.26.94-9.62,1.02-9.69.08-.07,2.75-.2,5.93-.29l5.79-.16v19.7h-13.62l.88-9.56Z"/>
  <path id="path76" class="cls-2" d="m61.88,25.19v-3.19h9.06v-12.42h6.38v18.79h-15.44v-3.19Zm18.46.67v-2.52h4.19c2.31,0,4.19-.09,4.19-.19s-1.89-2.24-4.19-4.74l-4.19-4.55v-4.29h17.45v5.01l-4.1.09-4.1.09,4.26,4.59,4.26,4.59v4.41h-17.79v-2.52Z"/>
  <rect class="cls-5" width="160" height="160"/>
</svg>