<?xml version="1.0" encoding="UTF-8"?>
<svg id="svg2" xmlns="http://www.w3.org/2000/svg" viewBox="0 0 160 160">
  <defs>
    <style>
      .cls-1 {
        fill: url(#linear-gradient-12);
      }

      .cls-1, .cls-2, .cls-3, .cls-4, .cls-5, .cls-6, .cls-7, .cls-8, .cls-9, .cls-10, .cls-11, .cls-12, .cls-13, .cls-14, .cls-15, .cls-16, .cls-17 {
        stroke-width: 0px;
      }

      .cls-2 {
        fill: url(#linear-gradient);
      }

      .cls-3 {
        fill: url(#linear-gradient-6);
      }

      .cls-4, .cls-5 {
        fill: #be202e;
      }

      .cls-5 {
        isolation: isolate;
        opacity: .35;
      }

      .cls-6 {
        fill: url(#linear-gradient-11);
      }

      .cls-7 {
        fill: url(#linear-gradient-5);
      }

      .cls-8, .cls-10 {
        fill: none;
      }

      .cls-9 {
        fill: url(#linear-gradient-2);
      }

      .cls-10 {
        opacity: .5;
      }

      .cls-11 {
        fill: url(#linear-gradient-7);
      }

      .cls-12 {
        fill: url(#linear-gradient-3);
      }

      .cls-13 {
        fill: url(#linear-gradient-9);
      }

      .cls-14, .cls-18 {
        fill: #d22128;
      }

      .cls-15 {
        fill: url(#linear-gradient-8);
      }

      .cls-18 {
        stroke: #d22128;
        stroke-width: 1.23px;
      }

      .cls-18, .cls-19 {
        stroke-linejoin: round;
      }

      .cls-19 {
        fill: url(#linear-gradient-10);
        stroke: #fff;
        stroke-width: .25px;
      }

      .cls-16 {
        fill: url(#linear-gradient-4);
      }

      .cls-17 {
        fill: #b0afb0;
      }
    </style>
    <linearGradient id="linear-gradient" x1="-9393.72" y1="-866.44" x2="-9352.44" y2="-914.71" gradientTransform="translate(552.12 -1403.96) rotate(-65) scale(.16 -.16)" gradientUnits="userSpaceOnUse">
      <stop offset="0" stop-color="#f69923"/>
      <stop offset=".31" stop-color="#f79a23"/>
      <stop offset=".84" stop-color="#e97826"/>
    </linearGradient>
    <linearGradient id="linear-gradient-2" x1="-9699.18" y1="-860.99" x2="-9404.71" y2="-860.99" gradientTransform="translate(552.12 -1403.96) rotate(-65) scale(.16 -.16)" gradientUnits="userSpaceOnUse">
      <stop offset=".32" stop-color="#9e2064"/>
      <stop offset=".63" stop-color="#c92037"/>
      <stop offset=".75" stop-color="#cd2335"/>
      <stop offset="1" stop-color="#e97826"/>
    </linearGradient>
    <linearGradient id="linear-gradient-3" x1="-9663.64" y1="-890.58" x2="-9488.16" y2="-890.58" gradientTransform="translate(552.12 -1403.96) rotate(-65) scale(.16 -.16)" gradientUnits="userSpaceOnUse">
      <stop offset="0" stop-color="#282662"/>
      <stop offset=".1" stop-color="#662e8d"/>
      <stop offset=".79" stop-color="#9f2064"/>
      <stop offset=".95" stop-color="#cd2032"/>
    </linearGradient>
    <linearGradient id="linear-gradient-4" x1="-9682.65" y1="-858.27" x2="-9388.17" y2="-858.27" gradientTransform="translate(552.12 -1403.96) rotate(-65) scale(.16 -.16)" gradientUnits="userSpaceOnUse">
      <stop offset=".32" stop-color="#9e2064"/>
      <stop offset=".63" stop-color="#c92037"/>
      <stop offset=".75" stop-color="#cd2335"/>
      <stop offset="1" stop-color="#e97826"/>
    </linearGradient>
    <linearGradient id="linear-gradient-5" x1="-9661.17" y1="-862.3" x2="-9506.41" y2="-862.3" gradientTransform="translate(552.12 -1403.96) rotate(-65) scale(.16 -.16)" gradientUnits="userSpaceOnUse">
      <stop offset="0" stop-color="#282662"/>
      <stop offset=".1" stop-color="#662e8d"/>
      <stop offset=".79" stop-color="#9f2064"/>
      <stop offset=".95" stop-color="#cd2032"/>
    </linearGradient>
    <linearGradient id="linear-gradient-6" x1="-9682.65" y1="-888.74" x2="-9388.17" y2="-888.74" gradientTransform="translate(552.12 -1403.96) rotate(-65) scale(.16 -.16)" gradientUnits="userSpaceOnUse">
      <stop offset=".32" stop-color="#9e2064"/>
      <stop offset=".63" stop-color="#c92037"/>
      <stop offset=".75" stop-color="#cd2335"/>
      <stop offset="1" stop-color="#e97826"/>
    </linearGradient>
    <linearGradient id="linear-gradient-7" x1="-9700.91" y1="-887.26" x2="-9406.44" y2="-887.26" gradientTransform="translate(552.12 -1403.96) rotate(-65) scale(.16 -.16)" gradientUnits="userSpaceOnUse">
      <stop offset=".32" stop-color="#9e2064"/>
      <stop offset=".63" stop-color="#c92037"/>
      <stop offset=".75" stop-color="#cd2335"/>
      <stop offset="1" stop-color="#e97826"/>
    </linearGradient>
    <linearGradient id="linear-gradient-8" x1="-9682.65" y1="-897.87" x2="-9388.17" y2="-897.87" gradientTransform="translate(552.12 -1403.96) rotate(-65) scale(.16 -.16)" gradientUnits="userSpaceOnUse">
      <stop offset=".32" stop-color="#9e2064"/>
      <stop offset=".63" stop-color="#c92037"/>
      <stop offset=".75" stop-color="#cd2335"/>
      <stop offset="1" stop-color="#e97826"/>
    </linearGradient>
    <linearGradient id="linear-gradient-9" x1="-9682.65" y1="-896.8" x2="-9388.17" y2="-896.8" gradientTransform="translate(552.12 -1403.96) rotate(-65) scale(.16 -.16)" gradientUnits="userSpaceOnUse">
      <stop offset=".32" stop-color="#9e2064"/>
      <stop offset=".63" stop-color="#c92037"/>
      <stop offset=".75" stop-color="#cd2335"/>
      <stop offset="1" stop-color="#e97826"/>
    </linearGradient>
    <linearGradient id="linear-gradient-10" x1="-224.03" y1="469.03" x2="-223.48" y2="469.03" gradientTransform="translate(37486.67 22421.19) scale(167.13 -47.63)" gradientUnits="userSpaceOnUse">
      <stop offset="0" stop-color="#000"/>
      <stop offset="1" stop-color="#000"/>
    </linearGradient>
    <linearGradient id="linear-gradient-11" x1="-208.27" y1="441.7" x2="-207.73" y2="441.7" gradientTransform="translate(1670.98 4626.81) scale(7.35 -10.31)" gradientUnits="userSpaceOnUse">
      <stop offset="0" stop-color="#4d4d4d"/>
      <stop offset="1" stop-color="#4d4d4d"/>
    </linearGradient>
    <linearGradient id="linear-gradient-12" x1="-213.85" y1="441.7" x2="-213.31" y2="441.7" gradientTransform="translate(2410.65 4626.82) scale(10.59 -10.31)" gradientUnits="userSpaceOnUse">
      <stop offset="0" stop-color="#4d4d4d"/>
      <stop offset="1" stop-color="#4d4d4d"/>
    </linearGradient>
  </defs>
  <rect class="cls-10" width="160" height="160"/>
  <g id="layer1">
    <g id="g3203">
      <path id="path3212" class="cls-2" d="m29.44,56.14c-.76.45-2.02,1.71-3.51,3.54l1.38,2.6c.96-1.39,1.95-2.63,2.94-3.69.07-.08.12-.13.12-.13-.04.04-.08.08-.12.13-.32.35-1.3,1.48-2.76,3.74,1.41-.07,3.58-.36,5.35-.67.53-2.95-.51-4.3-.51-4.3,0,0-1.33-2.15-2.89-1.22Z"/>
      <path id="path3214" class="cls-8" d="m27.1,70.97s.02,0,.03,0l-.2.02s-.03,0-.04.02c.07,0,.14-.02.21-.03Z"/>
      <path id="path3216" class="cls-8" d="m25.69,75.62c-.11.03-.22.04-.34.06.12-.02.23-.04.34-.06Z"/>
      <path id="path3218" class="cls-8" d="m16.14,86.06s.03-.08.04-.12c.31-.8.6-1.57.9-2.34.33-.85.67-1.67.99-2.47.34-.84.68-1.66,1.02-2.44.35-.83.69-1.62,1.03-2.38.28-.62.55-1.22.82-1.81.09-.2.18-.39.27-.58.18-.38.35-.75.52-1.11.16-.33.31-.66.47-.98.05-.11.11-.22.15-.31,0-.02.02-.04.03-.05l-.17.02-.13-.26s-.03.05-.04.08c-.24.48-.49.96-.72,1.46-.13.28-.27.57-.41.85-.38.79-.75,1.58-1.11,2.39-.37.81-.73,1.63-1.08,2.44-.35.8-.68,1.6-1.02,2.4-.33.8-.66,1.59-.97,2.38-.33.83-.66,1.65-.96,2.46-.07.18-.14.37-.21.55-.25.66-.49,1.3-.73,1.93l.22.42.19-.02s.02-.04.02-.05c.28-.85.58-1.67.88-2.46Z"/>
      <path id="path3222" class="cls-4" d="m24.8,77.97c-.18.04-.36.06-.54.09h0c.09,0,.19-.03.28-.04.09,0,.18-.03.26-.04Z"/>
      <path id="path3224" class="cls-5" d="m24.8,77.97c-.18.04-.36.06-.54.09h0c.09,0,.19-.03.28-.04.09,0,.18-.03.26-.04Z"/>
      <path id="path3226" class="cls-4" d="m25.27,75.69h0s0,0,0,0c.03,0,.05,0,.08,0,.12-.02.23-.04.34-.06-.13.03-.28.04-.42.07h0Z"/>
      <path id="path3228" class="cls-5" d="m25.27,75.69h0s0,0,0,0c.03,0,.05,0,.08,0,.12-.02.23-.04.34-.06-.13.03-.28.04-.42.07h0Z"/>
      <path id="path3239" class="cls-9" d="m23.24,68.99c.42-.78.85-1.55,1.27-2.29.44-.77.89-1.52,1.35-2.25.03-.04.05-.09.08-.13.45-.71.9-1.39,1.36-2.05l-1.38-2.59c-.1.13-.21.25-.31.39-.4.49-.81,1.03-1.23,1.59-.48.64-.96,1.31-1.47,2.02-.46.66-.93,1.35-1.39,2.06-.4.61-.79,1.23-1.19,1.87-.02.03-.03.04-.04.07l1.79,3.54c.4-.75.78-1.49,1.17-2.23Z"/>
      <path id="path3250" class="cls-12" d="m15.08,88.93c-.23.65-.48,1.31-.71,2,0,0,0,.02,0,.03-.04.1-.07.19-.1.29-.16.46-.3.87-.62,1.81.53.24.95.87,1.35,1.59-.04-.75-.35-1.45-.94-1.99,2.6.12,4.85-.54,6-2.45.1-.17.2-.35.29-.54-.53.67-1.18.95-2.41.88h0,0c1.81-.81,2.72-1.59,3.52-2.88.19-.31.38-.64.57-1.01-1.58,1.63-3.42,2.09-5.35,1.74l-1.45.16c-.04.13-.09.24-.13.37Z"/>
      <path id="path3261" class="cls-16" d="m15.75,85.68c.31-.81.64-1.63.96-2.46.31-.79.64-1.58.97-2.38s.67-1.6,1.02-2.4c.35-.82.71-1.63,1.08-2.44.36-.8.74-1.6,1.11-2.39.13-.29.27-.57.41-.85.23-.49.48-.97.72-1.46,0-.03.03-.05.04-.08l-1.77-3.53s-.05.1-.09.14c-.41.68-.84,1.38-1.24,2.09-.41.72-.82,1.45-1.21,2.19-.33.63-.66,1.26-.98,1.9-.06.13-.13.26-.19.39-.39.8-.75,1.58-1.06,2.33-.36.85-.67,1.66-.95,2.42-.18.5-.35.99-.5,1.46-.13.4-.24.8-.36,1.2-.27.94-.49,1.87-.68,2.81l1.8,3.55c.23-.64.49-1.28.73-1.93.07-.18.14-.36.22-.55Z"/>
      <path id="path3272" class="cls-7" d="m12.98,84.74c-.22,1.13-.39,2.27-.47,3.4,0,.04,0,.08,0,.12-.56-.9-2.07-1.78-2.06-1.77,1.08,1.57,1.9,3.11,2.02,4.63-.58.12-1.37-.05-2.28-.39.95.87,1.66,1.12,1.94,1.18-.87.05-1.78.66-2.7,1.35,1.34-.55,2.43-.76,3.2-.58-1.23,3.48-2.46,7.33-3.7,11.42.38-.11.6-.37.73-.71.22-.74,1.68-5.6,3.97-11.97.06-.18.13-.36.2-.55.02-.05.04-.1.05-.15.24-.67.49-1.35.76-2.05.06-.16.12-.31.18-.48h0s-1.8-3.56-1.8-3.56c-.02.04-.03.08-.04.13h0Z"/>
      <path id="path3283" class="cls-3" d="m22.36,71.52c-.05.11-.1.21-.15.31-.15.32-.31.65-.47.98-.17.36-.34.73-.52,1.11-.09.19-.18.38-.27.58-.27.58-.54,1.19-.82,1.81-.34.76-.68,1.56-1.03,2.38-.33.78-.67,1.6-1.02,2.44-.32.8-.66,1.62-.99,2.47-.3.76-.59,1.54-.9,2.34-.02.04-.03.08-.04.12-.3.79-.6,1.61-.91,2.45,0,.02-.02.04-.02.05l1.45-.16s-.05,0-.09-.02c1.74-.22,4.04-1.51,5.52-3.11.68-.74,1.3-1.6,1.88-2.62.43-.76.83-1.59,1.21-2.53.33-.81.66-1.69.96-2.64-.4.21-.85.36-1.36.47-.09.02-.18.04-.27.05s-.18.03-.28.04h0c1.62-.62,2.64-1.82,3.37-3.29-.42.29-1.12.67-1.94.85-.11.03-.22.04-.34.06-.03,0-.05,0-.09,0h0c.56-.23,1.03-.49,1.45-.81.09-.06.17-.13.25-.21.13-.11.24-.22.36-.34.07-.08.14-.15.22-.23.16-.19.31-.4.45-.62.04-.07.09-.13.13-.21.05-.11.11-.21.15-.31.22-.45.4-.85.55-1.21.07-.18.13-.34.19-.49.02-.06.04-.12.06-.18.05-.17.11-.32.14-.46.05-.2.09-.36.11-.48h0c-.05.04-.12.09-.19.13-.49.29-1.32.56-2,.68l1.33-.14-1.33.14s-.02,0-.03,0c-.06,0-.13.02-.21.04,0,0,.03,0,.04-.02l-4.55.49s0,.05,0,.06Z"/>
      <path id="path3294" class="cls-11" d="m27.48,62.33c-.4.62-.85,1.33-1.32,2.12-.03.04-.05.08-.07.13-.41.69-.85,1.45-1.3,2.28-.4.72-.81,1.48-1.24,2.32-.38.72-.76,1.48-1.16,2.29l4.55-.49c1.32-.61,1.92-1.16,2.49-1.96.15-.22.31-.45.46-.69.47-.73.93-1.53,1.33-2.33.4-.77.75-1.54,1.01-2.22.17-.44.31-.85.4-1.21.08-.31.14-.61.2-.9-1.76.3-3.93.58-5.34.66Z"/>
      <path id="path3296" class="cls-4" d="m24.54,78.02c-.09.02-.18.03-.28.04h0c.09-.02.18-.04.28-.04Z"/>
      <path id="path3298" class="cls-5" d="m24.54,78.02c-.09.02-.18.03-.28.04h0c.09-.02.18-.04.28-.04Z"/>
      <path id="path3309" class="cls-15" d="m24.54,78.02c-.09.02-.18.03-.28.04h0c.09-.02.18-.04.28-.04Z"/>
      <path id="path3311" class="cls-4" d="m25.26,75.69s.05,0,.09,0c-.03,0-.05,0-.09,0h0Z"/>
      <path id="path3313" class="cls-5" d="m25.26,75.69s.05,0,.09,0c-.03,0-.05,0-.09,0h0Z"/>
      <path id="path3324" class="cls-13" d="m25.26,75.69s.05,0,.09,0c-.03,0-.05,0-.09,0h0Z"/>
    </g>
    <path id="path3343" class="cls-17" d="m27.36,70.9v.66h-.18v-.66h-.23v-.16h.64v.16h-.23Z"/>
    <path id="path3345" class="cls-17" d="m28.45,71.05l-.22.45h-.11l-.22-.45v.51h-.18v-.82h.25l.21.45.21-.45h.25v.82h-.18v-.51h-.01Z"/>
    <path id="path3718" class="cls-18" d="m34.83,102.81c-.76,0-1.43-.04-2-.12-.57-.07-1.06-.16-1.46-.26v-4.53c.43.09.89.18,1.37.25.47.07.98.11,1.54.11.54,0,1.03-.06,1.49-.18.47-.12.87-.32,1.21-.61.35-.28.62-.66.81-1.14.2-.48.3-1.08.3-1.81v-24.89h5.44v24.71c0,1.47-.22,2.74-.65,3.81-.42,1.06-1.02,1.94-1.79,2.63-.76.7-1.67,1.22-2.74,1.54-1.06.33-2.24.49-3.53.49"/>
    <path id="path3720" class="cls-19" d="m46.44,69.62v25.64h4.86v-11.93c0-.33,0-.69-.02-1.1,0-.41-.01-.83-.03-1.28-.01-.44-.03-.89-.05-1.35-.01-.46-.03-.9-.06-1.33-.05-1.01-.1-2.05-.17-3.12h.16l5.63,20.11h4.99l6.07-20.08h.14c-.04,1.06-.07,2.08-.12,3.07-.01.42-.03.85-.06,1.3-.01.44-.02.88-.03,1.31-.01.43-.02.84-.03,1.23,0,.39,0,.73,0,1.03v12.14h5.07v-25.64h-7.4l-5.89,19.6h-.1l-5.54-19.6h-7.4,0Zm50.91,1.86l-1.54,4.13-2.94,1.79v2.26h2.56v9.45c0,1.26.15,2.31.45,3.16.32.83.75,1.49,1.29,2,.54.49,1.18.84,1.91,1.04s1.53.29,2.38.29,1.69-.08,2.42-.26c.75-.16,1.37-.38,1.87-.64v-3.98c-.49.18-.97.32-1.45.44-.47.12-.97.17-1.49.17-.61,0-1.1-.18-1.47-.54-.37-.36-.56-.92-.56-1.68v-9.45h4.77v-4.02h-4.77v-4.18h-3.42,0Zm-13.73,3.81c-1.33,0-2.55.22-3.65.65-1.09.43-2.02,1.08-2.81,1.94-.77.85-1.38,1.93-1.81,3.21-.43,1.29-.65,2.79-.65,4.5s.24,3.18.71,4.44c.48,1.25,1.14,2.29,2,3.12.85.82,1.87,1.43,3.05,1.84,1.18.41,2.47.61,3.88.61.72,0,1.39-.03,2-.08.61-.05,1.18-.13,1.7-.24.53-.12,1.02-.26,1.49-.43.48-.18.96-.38,1.42-.63v-4.14c-.51.26-1.02.49-1.51.68-.49.19-.99.35-1.49.47-.5.13-1.02.23-1.56.3-.53.06-1.09.08-1.68.08-.71,0-1.35-.11-1.91-.33-.55-.22-1.03-.54-1.42-.95-.39-.42-.69-.93-.91-1.53-.21-.61-.33-1.28-.35-2.03h11.96v-2.6c0-1.43-.2-2.69-.59-3.79-.39-1.11-.95-2.05-1.68-2.81-.72-.76-1.62-1.33-2.67-1.72-1.04-.4-2.21-.59-3.51-.59h0Zm32.2,0c-1.33,0-2.55.22-3.65.65-1.09.43-2.02,1.08-2.81,1.94-.77.85-1.38,1.93-1.81,3.21-.43,1.29-.65,2.79-.65,4.5s.24,3.18.71,4.44c.48,1.25,1.14,2.29,2,3.12.85.82,1.87,1.43,3.05,1.84,1.18.41,2.47.61,3.88.61.72,0,1.39-.03,2-.08.61-.05,1.18-.13,1.7-.24.53-.12,1.02-.26,1.49-.43.48-.18.96-.38,1.42-.63v-4.14c-.51.26-1.02.49-1.51.68-.49.19-.99.35-1.49.47-.5.13-1.02.23-1.56.3-.53.06-1.09.08-1.68.08-.71,0-1.35-.11-1.91-.33-.55-.22-1.02-.54-1.42-.95-.39-.42-.69-.93-.91-1.53-.21-.61-.33-1.28-.35-2.03h11.96v-2.6c0-1.43-.2-2.69-.59-3.79-.39-1.11-.95-2.05-1.68-2.81-.72-.76-1.62-1.33-2.67-1.72-1.04-.4-2.21-.59-3.51-.59h0Zm20.11,0c-.65,0-1.24.08-1.75.24-.5.15-.96.37-1.37.66-.4.28-.76.63-1.08,1.04s-.63.86-.91,1.36h-.27l-.79-2.94h-4.05v19.6h5.35v-9.98c0-.92.11-1.7.34-2.33.23-.64.55-1.16.96-1.54.42-.4.92-.68,1.49-.86.58-.18,1.22-.27,1.91-.27.12,0,.26,0,.44.02.18,0,.35.01.52.03.19.01.37.03.53.06.16.02.29.05.38.07v-5.02c-.07-.02-.17-.04-.31-.05-.13-.02-.28-.04-.44-.06-.15-.02-.31-.03-.49-.03-.16-.01-.32-.01-.46-.01h0Zm-52.28,3.81c.56,0,1.05.1,1.47.31.42.21.77.5,1.05.87.28.36.49.8.63,1.3.14.5.22,1.05.23,1.65h-6.82c.09-1.43.45-2.47,1.07-3.14.63-.67,1.42-1,2.37-1h0Zm32.2,0c.56,0,1.05.1,1.47.31.42.21.77.5,1.05.87.28.36.49.8.63,1.3.14.5.22,1.05.23,1.65h-6.82c.09-1.43.45-2.47,1.07-3.14.63-.67,1.42-1,2.37-1h0Z"/>
    <g id="text3756">
      <path id="path3879" class="cls-6" d="m143.01,75.24h-1.19v-4.63h-1.41v-.99h4.01v.99h-1.41v4.63"/>
      <path id="path3881" class="cls-1" d="m147.55,75.24l-1.24-4.41h-.03c.02.24.03.46.04.68,0,.09,0,.19.01.29,0,.1,0,.2.01.3,0,.1,0,.19,0,.28,0,.09,0,.17,0,.24v2.62h-1.07v-5.63h1.62l1.22,4.3h.02l1.29-4.3h1.62v5.63h-1.11v-2.89c0-.08,0-.17,0-.27,0-.09,0-.19,0-.29,0-.1,0-.19.01-.28.01-.22.02-.44.03-.67h-.03l-1.33,4.41h-1.1"/>
    </g>
    <g id="g8126">
      <g id="g8128">
        <path id="path8130" class="cls-14" d="m38.02,65.68l3.84-9.18h.74l3.84,9.18h-.97l-1.19-2.87h-4.13l-1.18,2.87s-.96,0-.96,0Zm4.21-8.12l-1.89,4.53h3.72s-1.84-4.53-1.84-4.53Z"/>
        <path id="path8132" class="cls-14" d="m47.42,65.68v-9.18h3.8c1.57,0,2.71,1.46,2.71,2.88,0,1.5-1.06,2.91-2.63,2.91h-2.98v3.39h-.9Zm.9-4.19h2.94c1.08,0,1.78-1,1.78-2.1s-.85-2.08-1.86-2.08h-2.86v4.18Z"/>
        <path id="path8134" class="cls-14" d="m53.43,65.68l3.84-9.18h.74l3.84,9.18h-.98l-1.19-2.87h-4.12l-1.18,2.87h-.95Zm4.21-8.12l-1.89,4.53h3.72s-1.84-4.53-1.84-4.53Z"/>
        <path id="path8136" class="cls-14" d="m66.19,56.45c1.63,0,2.82.83,3.39,2l-.72.44c-.58-1.22-1.72-1.63-2.71-1.63-2.2,0-3.4,1.96-3.4,3.81,0,2.03,1.49,3.86,3.44,3.86,1.04,0,2.25-.51,2.83-1.71l.75.39c-.59,1.37-2.22,2.13-3.63,2.13-2.52,0-4.29-2.41-4.29-4.73s1.59-4.57,4.35-4.57Z"/>
        <path id="path8138" class="cls-14" d="m78.25,56.5v9.18h-.9v-4.29h-5.44v4.29h-.89v-9.18h.89v4.08h5.44v-4.08h.9Z"/>
        <path id="path8140" class="cls-14" d="m86.49,64.88v.8h-6.16v-9.18h6.05v.8h-5.16v3.31h4.49v.76h-4.49v3.5h5.27Z"/>
      </g>
    </g>
  </g>
</svg>