<?xml version="1.0" encoding="UTF-8"?>
<svg id="Layer_1" data-name="Layer 1" xmlns="http://www.w3.org/2000/svg" viewBox="0 0 160 160">
  <defs>
    <style>
      .cls-1 {
        fill: #f62b54;
      }

      .cls-1, .cls-2, .cls-3, .cls-4 {
        stroke-width: 0px;
      }

      .cls-2 {
        fill: none;
      }

      .cls-3 {
        fill: #00ca72;
      }

      .cls-4 {
        fill: #fc0;
      }
    </style>
  </defs>
  <rect class="cls-2" width="160" height="160"/>
  <g>
    <path class="cls-1" d="m31.37,118.62c-5.83.01-11.21-3.11-14.09-8.18-2.84-5.03-2.67-11.22.44-16.09l29.01-45.56c3.02-4.99,8.49-7.96,14.32-7.78,5.82.14,11.12,3.4,13.86,8.54,2.7,5.11,2.37,11.27-.87,16.07l-29,45.56c-2.99,4.66-8.15,7.46-13.68,7.44h0Z"/>
    <path class="cls-4" d="m81.14,118.62c-5.85,0-11.24-3.13-14.06-8.16-2.83-5.02-2.66-11.19.44-16.05l28.96-45.46c2.98-5.06,8.47-8.1,14.33-7.95,5.9.13,11.25,3.43,13.95,8.59,2.69,5.16,2.29,11.35-1.04,16.14l-28.95,45.46c-2.98,4.64-8.12,7.43-13.63,7.42Z"/>
    <ellipse class="cls-3" cx="129.79" cy="104.38" rx="14.94" ry="14.62"/>
  </g>
</svg>