<?xml version="1.0" encoding="UTF-8"?>
<svg id="Layer_1" data-name="Layer 1" xmlns="http://www.w3.org/2000/svg" viewBox="0 0 160 160">
    <defs>
        <style>
            .cls-1 {
            fill: #70ad51;
            }

            .cls-1, .cls-2, .cls-3, .cls-4 {
            stroke-width: 0px;
            }

            .cls-1, .cls-4 {
            fill-rule: evenodd;
            }

            .cls-2 {
            fill: none;
            }

            .cls-3, .cls-4 {
            fill: #fff;
            }
        </style>
    </defs>
    <rect class="cls-2" width="160" height="160"/>
    <g>
        <path class="cls-2" d="m13.5,13h135v135H13.5V13Z"/>
        <path class="cls-1" d="m36.56,131.1c2.47,2,6.1,1.62,8.09-.85,2-2.47,1.63-6.1-.84-8.1-2.47-2-6.09-1.62-8.1.85-1.9,2.34-1.65,5.72.49,7.78l-1.12-.99c-13.25-12.32-21.57-29.89-21.57-49.38C13.5,43.24,43.74,13,80.92,13c18.9,0,35.99,7.83,48.24,20.4,2.78-3.79,5.2-8.02,7.17-12.72,8.59,25.81,13.64,47.5,11.79,64.59-2.5,34.91-31.67,62.56-67.2,62.56-16.5,0-31.62-5.97-43.35-15.85l-1.37-1.21.37.32Z"/>
        <path class="cls-4" d="m136.04,110.08c16.92-22.51,7.49-58.91-.36-82.18-6.99,14.57-24.21,25.71-39.07,29.24-13.93,3.32-26.27.6-39.16,5.56-29.4,11.31-28.94,46.37-12.74,54.25,0,0,.97.52.96.51,0,0,23.81-4.73,36.97-9.59,19.24-7.1,40.36-24.62,47.3-44.96-3.7,21.16-21.86,41.51-40.11,50.86-9.71,4.99-17.26,6.1-33.24,11.63-1.96.67-3.49,1.32-3.49,1.32,4.05-.67,8.09-.89,8.09-.89,22.75-1.08,58.25,6.4,74.86-15.74h0Z"/>
    </g>
    <circle class="cls-3" cx="40.18" cy="126.63" r="5.8"/>
</svg>