<?xml version="1.0" encoding="UTF-8"?>
<svg id="Layer_1" data-name="Layer 1" xmlns="http://www.w3.org/2000/svg" viewBox="0 0 160 160">
  <defs>
    <style>
      .cls-1, .cls-2 {
        fill: #173647;
      }

      .cls-1, .cls-2, .cls-3, .cls-4 {
        stroke-width: 0px;
      }

      .cls-2, .cls-4 {
        fill-rule: evenodd;
      }

      .cls-3 {
        fill: none;
        opacity: .5;
      }

      .cls-4 {
        fill: #23d96c;
      }
    </style>
  </defs>
  <g>
    <path class="cls-4" d="m110.3,20.52c-1.11-.69-2.22-1.25-3.34-1.81s-2.36-1.11-3.47-1.53c-.42-.14-.69-.28-1.11-.42-1.11-.42-2.08-.83-3.2-1.11-5.98-1.95-12.23-2.92-18.48-2.92-32.66-.14-59.2,26.27-59.2,59.06,0,28.91,20.71,52.81,47.94,58.09v16.95c35.44-5.28,66.84-33.49,69.21-70.46,1.39-22.24-9.73-44.89-28.35-55.87Z"/>
    <path class="cls-1" d="m66.25,150.6v-18.07c-27.93-6.67-47.94-31.82-47.94-60.73,0-34.46,28.07-62.4,62.4-62.4,6.67,0,13.2.97,19.46,3.06.83.28,1.67.56,2.5.83l.83.28c.42.14.69.28,1.11.42,1.11.42,2.22.97,3.61,1.67,1.25.56,2.36,1.25,3.47,1.95,19.46,11.4,31.41,35.16,29.88,58.92-2.36,36.55-32.52,67.54-71.99,73.38l-3.34.69ZM80.84,15.8h0c-30.99,0-56.14,25.15-56.14,56,0,26.68,19.04,49.89,45.44,55.03l2.64.56v15.84c34.46-6.95,60.59-34.46,62.68-66.98,1.39-21.4-9.45-42.8-26.82-53.09h0c-.97-.56-2.08-1.11-3.06-1.67-1.25-.56-2.22-1.11-3.2-1.53-.42-.14-.69-.28-.97-.42l-.83-.28c-.69-.28-1.53-.56-2.22-.83-5.7-1.81-11.53-2.64-17.51-2.64Z"/>
    <path class="cls-2" d="m68.89,41.78c1.81-.28,3.61.42,4.86,1.81.97.97,1.53,2.08,2.22,3.34,1.95,4.31,3.06,10.56.69,14.04-4.45-.83-10.14-5-12.09-9.31-.69-1.25-.97-2.78-1.11-4.03,0-3.2,2.64-5.56,5.42-5.84Zm-17.23,24.32c1.25.97,2.5,1.67,3.75,2.22,4.31,1.81,11.12,2.08,14.87-.42-.97-4.03-5.84-8.62-10.14-10.42-1.53-.56-2.78-.97-4.45-.97h-.97c-5,.28-7.09,6.39-3.06,9.59Zm18.48,10.42c-2.36-1.53-7.23-.97-10.01-.83-1.67,0-3.47.42-5,1.11-1.53.56-2.78,1.25-3.75,2.22-4.03,3.47-1.39,10.01,4.31,9.59,1.53,0,3.2-.42,4.45-.97,4.31-1.95,9.45-7.09,10.01-11.12Zm7.92,6.11c-4.31.97-9.45,6.25-11.26,10.7-.56,1.25-.97,2.78-.97,4.03-.28,5.28,6.95,8.2,10.01,4.03.97-1.25,1.53-2.5,2.08-3.75,1.95-4.03,2.64-11.26.14-15.01Zm7.78-21.82c4.31-.97,9.31-5.28,11.26-9.59.56-1.25.97-2.78.97-4.03.14-3.34-2.5-5.7-5.42-5.98-1.81-.14-3.61.56-4.86,1.95-.97,1.25-1.53,2.5-2.08,3.75-1.95,4.31-2.64,10.56.14,13.9Zm12.79,36.83c0-1.25-.42-2.78-.97-4.03-1.81-4.31-6.39-9.03-10.84-9.87-2.5,3.47-2.5,10.01-.69,14.31.56,1.25,1.25,2.5,2.08,3.47,3.61,3.61,10.84.83,10.42-3.89Zm12.79-19.04c-1.25-.97-2.5-1.53-3.75-2.08-1.67-.69-3.34-1.11-5-1.11-2.92,0-7.23.14-9.73,1.67.97,4.03,5.7,8.48,10.01,10.28,1.53.56,2.78.97,4.45.97,5.7.28,8.34-6.67,4.03-9.73Z"/>
  </g>
  <rect class="cls-3" width="160" height="160"/>
</svg>