<?xml version="1.0" encoding="UTF-8"?>
<svg id="Layer_1" data-name="Layer 1" xmlns="http://www.w3.org/2000/svg" viewBox="0 0 160 160">
  <defs>
    <style>
      .cls-1 {
        fill: #dc514a;
      }

      .cls-1, .cls-2, .cls-3 {
        stroke-width: 0px;
      }

      .cls-2 {
        fill: none;
        opacity: .5;
      }

      .cls-3 {
        fill: #23a161;
      }
    </style>
  </defs>
  <rect class="cls-2" width="160" height="160"/>
  <g>
    <path class="cls-1" d="m80.32,10.1c-17.31-.33-33.82,4.24-47.94,17.3C2.82,54.74,1.94,101.55,30.49,129.9c5.14,5.1,11.26,9.82,17.97,12.7,1.75-5.9,1.41-13.02.86-20.02-.13-.14-.27-.27-.37-.43-1.88-2.8-.48-10.1-.48-13.42,11.8,2.09,21.42,8.58,34.05,4.81,12.37-3.69,17.52-21.52,6.62-29.96-6.58-5.1-16.35-4.41-24.11-3.47-4.66.56-10.49,2.28-13.7-2.67-1.9-2.92.06-10.08.38-13.39.08-.83.17-1.68.25-2.52.83-10.26,2.2-20.62,2.2-30.88h50.13V13.25c-8.05-1.84-16.08-3-23.95-3.15h0Z"/>
    <path class="cls-3" d="m103.87,13.22v30.63h-36.48l-1.9,23.56c8.09-.63,15.6-2.06,23.69-.16,5.55,1.31,10.75,3.92,14.6,8.17,10.75,11.84,8.63,34.08-3.71,44.07-3.47,2.81-7.44,4.66-11.63,5.85-3.87,1.24-7.75,1.76-11.65,1.8-1.4.08-2.8.11-4.19.12-6.07,0-12.15-.79-18-2.43-1.49-.42-3.79-1-5.24-2.08-.31-.07-.61-.14-.92-.2l-.47,19.79c37.59,19.93,85.49-1.39,98.97-40.52,11.4-33.06-6.25-79.9-43.07-88.58Z"/>
  </g>
</svg>