<?xml version="1.0" encoding="UTF-8"?>
<svg id="Layer_1" data-name="Layer 1" xmlns="http://www.w3.org/2000/svg" viewBox="0 0 160 160">
  <defs>
    <style>
      .cls-1 {
        fill: #ff6c37;
      }

      .cls-1, .cls-2, .cls-3 {
        stroke-width: 0px;
      }

      .cls-2 {
        fill: #fff;
      }

      .cls-3 {
        fill: none;
        opacity: .5;
      }
    </style>
  </defs>
  <rect class="cls-3" width="160" height="160"/>
  <g>
    <path class="cls-1" d="m135.12,37.44C111.61,7,67.88,1.38,37.44,24.88,7,48.39,1.38,92.12,24.89,122.56c23.51,30.44,67.24,36.06,97.68,12.55,0,0,.01,0,.02-.01,30.42-23.51,36.04-67.23,12.53-97.67h0Z"/>
    <path class="cls-2" d="m103.49,54.73l-29.36,29.6-8.3-8.53c28.9-28.9,31.8-26.29,37.66-21.07h0Z"/>
    <path class="cls-1" d="m74.13,85.14c-.26,0-.51-.11-.7-.29l-8.36-8.36c-.39-.4-.39-1.05,0-1.45,28.49-28.49,32.38-27.16,39.11-21.07.23.18.36.46.35.76.04.28-.07.57-.29.76l-29.36,29.36c-.21.19-.48.29-.76.29h0Zm-6.85-9.34l6.85,6.85,27.85-27.85c-1.99-2.5-5.54-3.1-8.24-1.39-5.05,2.26-13.17,9.17-26.46,22.4Z"/>
    <path class="cls-2" d="m82.54,92.51l-8.01-8.18,29.36-29.02c7.89,7.72-3.83,20.6-21.35,37.2h0Z"/>
    <path class="cls-1" d="m82.54,93.56c-.26-.02-.5-.12-.7-.29l-8.18-8.01c-.12-.3-.12-.63,0-.93-.09-.24-.09-.51,0-.76l29.36-29.36c.42-.4,1.08-.4,1.51,0,1.92,1.77,2.98,4.29,2.9,6.9,0,7.83-8.94,17.7-24.14,32.09-.2.2-.47.32-.76.35h0Zm-6.5-9.23l6.56,6.55c11.61-10.97,22.69-22.28,22.75-29.94.06-1.62-.47-3.21-1.51-4.47l-27.8,27.86Z"/>
    <path class="cls-2" d="m66.06,75.97l5.8,5.8c.14.13.16.35.03.49,0,.01-.02.02-.03.03l-12.25,2.61c-.63.14-1.24-.26-1.38-.89-.09-.4.04-.81.33-1.08l7.14-7.08s.23,0,.35.12h0Z"/>
    <path class="cls-1" d="m59.33,86.07c-.79,0-1.51-.43-1.92-1.1-.46-.86-.29-1.93.41-2.61l7.08-7.14c.53-.47,1.33-.47,1.86,0l5.8,5.8c.34.33.48.82.35,1.28s-.51.82-.99.93l-12.25,2.61-.35.23Zm6.5-8.82l-6.56,6.56,10.85-2.32-4.3-4.23Z"/>
    <path class="cls-2" d="m119.1,38.43c-4.2-4.05-10.8-4.22-15.2-.4s-5.16,10.39-1.73,15.11c3.43,4.72,9.89,6.05,14.9,3.05l-7.89-7.89,9.92-9.86Z"/>
    <path class="cls-1" d="m111.27,58.85c-4.93-.06-9.35-3.07-11.22-7.63-1.87-4.56-.84-9.8,2.61-13.31,4.83-4.74,12.58-4.74,17.41,0,.22.19.35.46.35.76,0,.29-.13.57-.35.76l-9.4,8.88,7.14,7.02c.23.22.34.55.29.87-.03.31-.2.58-.46.76-1.92,1.2-4.12,1.86-6.38,1.92h.02Zm0-22.52c-4.13.02-7.83,2.51-9.39,6.31s-.71,8.18,2.19,11.1c2.95,2.97,7.42,3.82,11.26,2.15l-6.85-6.85c-.4-.32-.47-.91-.15-1.31.04-.05.09-.1.15-.15l9.05-9.11c-1.8-1.38-4-2.13-6.27-2.15h0Z"/>
    <path class="cls-2" d="m119.27,38.6l-9.92,9.86,7.89,7.89c.79-.46,1.53-1,2.2-1.63,4.3-4.55,4.22-11.68-.17-16.13h0Z"/>
    <path class="cls-1" d="m117.07,57.23c-.26.01-.52-.09-.7-.29l-7.89-7.89c-.4-.32-.47-.91-.15-1.31.04-.05.09-.1.15-.15l9.86-9.69c.32-.48.97-.61,1.45-.29.12.08.22.18.29.29,4.81,4.71,4.89,12.43.18,17.23-.06.06-.12.12-.18.18-.68.72-1.46,1.35-2.32,1.86-.22.11-.47.13-.7.06h0Zm-6.38-8.94l6.56,6.56c.45-.32.88-.67,1.28-1.04,1.93-1.92,3.01-4.53,3.02-7.25,0-2.44-.88-4.79-2.5-6.62l-8.36,8.36Z"/>
    <path class="cls-2" d="m104.71,55.95c-1.63-1.53-4.17-1.53-5.8,0l-26.29,26.23,4.35,4.41,27.8-24.37c1.72-1.64,1.77-4.37.13-6.08-.06-.06-.12-.12-.19-.18h0Z"/>
    <path class="cls-1" d="m76.74,87.64c-.26,0-.51-.11-.7-.29l-4.41-4.41c-.39-.4-.39-1.05,0-1.45l26.29-26.17c2.09-2.08,5.47-2.08,7.55,0,1.04,1.04,1.61,2.47,1.56,3.94-.06,1.47-.71,2.85-1.8,3.83l-27.8,24.37c-.2.14-.45.21-.7.17h0Zm-3.07-5.46l2.9,2.96,27.27-23.74c.67-.59,1.08-1.43,1.1-2.32s-.33-1.77-.99-2.38c-1.27-1.26-3.32-1.26-4.59,0l-25.71,25.48Z"/>
    <path class="cls-2" d="m52.25,112.07c-.15.21-.15.49,0,.7l1.16,5.05c.1.61-.19,1.21-.72,1.52-.53.31-1.2.24-1.66-.17l-7.95-7.66,24.78-24.98h8.59l5.8,5.8c-9.05,7.92-19.15,14.55-30,19.73h0Z"/>
    <path class="cls-1" d="m51.73,120.6c-.66-.01-1.31-.28-1.74-.76l-7.6-7.6c-.4-.32-.47-.91-.15-1.31.04-.05.09-.1.15-.15l24.95-25.01c.14-.15.32-.25.52-.29h8.65c.23-.08.47-.08.7,0l5.8,5.8c.22.21.33.51.29.81,0,.29-.12.57-.35.76l-.46.41c-9.09,7.58-19.09,13.99-29.77,19.09l1.1,4.7c.32,1.35-.52,2.69-1.86,3.01-.17.04-.34.06-.52.07l.29.46Zm-7.08-9.11l6.85,6.9c.13.12.33.12.46,0,.09-.12.09-.29,0-.41l-1.16-5.05c-.19-.75.18-1.52.87-1.86,10.39-5.03,20.13-11.31,29.01-18.69l-4.76-4.76h-7.78l-23.5,23.85Z"/>
    <path class="cls-2" d="m37.1,117.46l5.8-5.8,8.94,8.94-14.22-.99c-.64-.05-1.12-.61-1.07-1.25.03-.37.23-.7.55-.9h0Z"/>
    <path class="cls-1" d="m52.02,121.47l-14.16-.99c-.84-.08-1.56-.65-1.86-1.42s-.12-1.68.47-2.29l5.8-5.8c.4-.39,1.05-.39,1.45,0l8.88,8.88c.25.35.25.81,0,1.16-.13.22-.34.38-.58.46h0Zm-14.16-3.25l11.61.76-6.38-5.98-5.22,5.22Z"/>
    <path class="cls-2" d="m77.26,87.23l-11.72,1.8,6.79-6.73,4.93,4.93Z"/>
    <path class="cls-1" d="m65.54,90.13c-.4.01-.76-.22-.93-.58-.25-.35-.25-.81,0-1.16l6.73-6.79c.42-.4,1.08-.4,1.51,0l4.94,4.93c.2.32.2.73,0,1.04-.1.39-.42.68-.81.76l-11.61,1.8h.17Zm6.79-6.33l-3.77,3.77,6.5-.99-2.73-2.79Z"/>
    <path class="cls-2" d="m77.26,87.23l-8.18,1.04c-.56.13-1.12-.22-1.25-.79-.08-.34.02-.7.26-.95l4.24-4.24,4.93,4.93Z"/>
    <path class="cls-1" d="m68.84,89.38c-.77,0-1.48-.43-1.86-1.1-.46-.82-.31-1.84.35-2.5l4.24-4.24c.42-.4,1.08-.4,1.51,0l4.93,4.93c.42.4.44,1.06.04,1.48-.18.19-.42.3-.68.32l-8.12,1.04-.41.06Zm0-2.15l6.15-.76-2.73-2.73-3.48,3.48h.06Zm50.49-41.96c-.23-.38-.7-.53-1.1-.35-.19.1-.34.27-.4.48-.06.21-.04.43.06.62.41.86.29,1.87-.29,2.61-.15.14-.23.34-.22.55,0,.2.08.4.22.55.15.06.31.06.46,0,.28.07.57-.02.76-.23.98-1.19,1.18-2.84.52-4.24h0Z"/>
  </g>
</svg>