<?xml version="1.0" encoding="UTF-8"?>
<svg id="Layer_1" data-name="Layer 1" xmlns="http://www.w3.org/2000/svg" viewBox="0 0 188 183.33">
  <defs>
    <style>
      .cls-1 {
        fill: #1562ae;
      }

      .cls-1, .cls-2 {
        stroke-width: 0px;
      }

      .cls-2 {
        opacity: .5;
      }

      .cls-2, .cls-3 {
        fill: none;
      }

      .cls-3 {
        stroke: #050606;
        stroke-miterlimit: 10;
        stroke-width: 4px;
      }
    </style>
  </defs>
  <rect class="cls-2" width="188" height="183.33"/>
  <g>
    <rect class="cls-1" x="31.8" y="21.5" width="124.41" height="140.33" rx="44.18" ry="44.18"/>
    <path class="cls-3" d="m128.45,79.31l13.5-18.67-3.29,16.34-.33,20.36c-.34,2.39-1.63,4.54-3.57,5.97l-6.31,5.33v8.17c0,18.76-15.35,34.11-34.11,34.11s-34.11-15.35-34.11-34.11h20.78c.54,2.18,1.52,4.22,2.89,5.99.86,1.11,4.23,5.15,9.83,5.97,8.06,1.18,13.74-5.34,14.27-5.97,6.18-7.35,3.12-16.76,2.89-17.42-2.25-6.55-14.9-13.09-16.56-14.16-2.58-1.74-15.54-9.72-17.16-14.42-.23-.68-3.29-10.07,2.89-17.42.53-.62,6.21-7.15,14.27-5.97,5.6.82,8.97,4.86,9.83,5.97,1.58,1.98,2.64,4.31,3.09,6.8l.08.35h21.12c0-18.76-15.35-34.11-34.11-34.11s-34.12,15.35-34.12,34.11v13.45l-.7-.96-13.51-18.67,3.29,16.34.33,20.36c.34,2.39,1.63,4.54,3.57,5.97l7.19,6.08"/>
  </g>
</svg>